<?xml version="1.0" standalone="no"?>
<!DOCTYPE svg PUBLIC "-//W3C//DTD SVG 20010904//EN"
 "http://www.w3.org/TR/2001/REC-SVG-20010904/DTD/svg10.dtd">
<svg version="1.0" xmlns="http://www.w3.org/2000/svg"
 width="866.000000pt" height="866.000000pt" viewBox="0 0 866.000000 866.000000"
 preserveAspectRatio="xMidYMid meet">
<metadata>
Created by potrace 1.14, written by Peter Selinger 2001-2017
</metadata>
<g transform="translate(0.000000,866.000000) scale(0.100000,-0.100000)"
fill="#000000" stroke="none">
<path d="M1530 8649 c-252 -26 -528 -134 -730 -285 -130 -97 -188 -151 -278
-259 -178 -213 -294 -470 -336 -745 -15 -96 -16 -372 -14 -3070 l3 -2965 23
-97 c104 -453 363 -807 752 -1028 92 -52 261 -121 355 -144 209 -53 15 -49
2945 -53 2767 -4 2841 -3 3020 33 612 125 1096 625 1201 1243 19 114 19 171
16 3086 l-2 2970 -23 100 c-34 146 -65 235 -131 370 -208 425 -585 715 -1076
827 l-100 22 -2770 2 c-1539 1 -2808 -2 -2855 -7z m3190 -1112 c363 -68 572
-144 796 -294 274 -182 491 -460 584 -748 13 -38 44 -117 70 -175 38 -84 48
-120 53 -183 9 -99 38 -168 91 -213 22 -19 102 -66 177 -104 75 -38 139 -77
143 -86 18 -48 4 -103 -35 -132 -20 -15 -728 -171 -959 -212 -96 -17 -196 -37
-222 -46 -119 -39 -269 -174 -389 -351 -197 -292 -348 -365 -1052 -508 -187
-38 -247 -46 -382 -51 -191 -8 -420 -44 -447 -72 -18 -17 -18 -59 -18 -855 0
-523 4 -846 10 -862 21 -54 44 -57 492 -54 375 3 410 2 425 -14 23 -22 8 -48
-33 -59 -16 -5 -406 -6 -867 -2 -710 6 -840 9 -853 21 -18 19 -18 27 2 44 14
11 83 14 350 14 l333 0 28 28 28 27 5 833 c3 469 1 842 -4 854 -13 32 -47 41
-191 47 -158 7 -398 46 -486 79 -74 28 -322 149 -345 168 -44 36 -49 66 -49
269 0 107 -4 265 -9 350 -9 163 7 437 39 676 17 120 73 364 101 435 30 74 189
373 234 440 129 189 351 380 565 486 99 49 367 152 451 173 64 15 254 52 544
104 14 2 171 3 350 2 304 -3 334 -4 470 -29z m-157 -3041 c43 -17 84 -67 97
-116 17 -63 -24 -141 -94 -177 -43 -23 -118 -20 -160 6 -39 25 -76 91 -76 139
0 118 121 195 233 148z m1679 -91 c47 -35 71 -90 66 -149 -5 -66 -34 -107 -93
-136 -126 -61 -270 68 -226 203 13 38 53 84 86 98 35 15 138 5 167 -16z
m-1456 -330 c30 -19 60 -49 79 -79 l30 -49 3 -245 c2 -165 -1 -254 -8 -272
-12 -29 -47 -50 -84 -50 -12 0 -31 -6 -42 -14 -18 -14 -19 -33 -24 -454 -5
-415 -6 -441 -24 -461 -26 -29 -107 -30 -136 -1 -24 24 -23 5 -20 351 2 307
-3 342 -56 355 -37 9 -76 -13 -86 -51 -4 -16 -8 -164 -7 -328 1 -349 1 -347
-81 -347 -83 0 -80 -20 -80 471 0 487 6 455 -90 486 -38 13 -58 26 -67 43 -18
37 -7 470 14 529 20 56 67 109 118 133 36 16 64 18 276 16 l236 -3 49 -30z
m1444 -56 c67 -14 114 -55 139 -123 25 -69 79 -312 132 -603 50 -273 50 -273
-36 -298 -65 -19 -85 -36 -85 -73 -1 -15 0 -120 0 -233 1 -194 0 -207 -20
-232 -17 -22 -30 -27 -65 -27 -36 0 -48 5 -65 28 -22 27 -22 31 -15 250 6 198
5 225 -9 247 -24 37 -60 48 -95 30 -16 -8 -32 -22 -35 -32 -4 -10 -6 -122 -5
-250 3 -272 3 -273 -84 -273 -88 0 -87 -3 -87 269 0 270 -1 273 -76 292 -82
21 -82 17 -19 345 102 524 115 573 178 632 60 58 139 74 247 51z m-859 -234
c34 -18 69 -70 69 -103 0 -55 -74 -134 -125 -134 -41 0 -89 34 -113 83 -22 45
-22 48 -7 87 29 72 108 102 176 67z m140 -333 c34 -17 65 -44 84 -71 29 -42
30 -46 33 -178 2 -74 1 -146 -2 -159 -7 -25 -52 -54 -86 -54 -11 0 -32 -11
-45 -25 l-25 -24 0 -234 0 -234 -24 -22 c-23 -21 -31 -23 -145 -19 -175 5
-165 -12 -162 273 3 264 3 264 -83 289 -77 23 -86 39 -86 157 0 120 19 184 74
246 64 73 96 83 267 83 141 0 149 -1 200 -28z m-2275 -1600 c95 -48 150 -127
160 -230 22 -207 -178 -365 -377 -297 -170 58 -239 278 -136 432 33 49 116
108 166 117 54 9 147 -2 187 -22z m1514 -2 c25 -12 55 -32 68 -43 l22 -21 -37
-38 c-20 -21 -40 -38 -45 -38 -4 0 -24 11 -44 25 -99 67 -232 -2 -241 -127 -6
-67 26 -132 77 -159 52 -28 128 -25 175 6 l37 26 38 -33 c21 -18 39 -36 39
-40 2 -12 -42 -49 -84 -70 -56 -29 -158 -35 -223 -14 -159 53 -235 248 -157
401 35 68 84 111 157 137 68 24 156 19 218 -12z m1265 -4 c96 -47 148 -136
149 -251 1 -174 -130 -295 -305 -283 -234 17 -340 291 -183 477 26 31 82 65
134 82 46 16 147 3 205 -25z m451 -131 l149 -164 3 159 2 160 60 0 60 0 0
-280 0 -280 -34 0 c-30 0 -46 14 -182 165 l-149 164 -3 -159 -2 -160 -55 0
-55 0 0 280 0 280 29 0 c24 0 51 -25 177 -165z m-4313 144 c47 -13 106 -63
123 -106 8 -18 14 -50 14 -72 0 -105 -67 -170 -185 -181 l-60 -5 -3 -87 -3
-88 -59 0 -60 0 0 275 0 275 98 0 c53 0 114 -5 135 -11z m461 1 c84 -19 136
-84 136 -167 0 -61 -9 -84 -52 -129 l-29 -31 61 -102 c33 -57 60 -105 60 -107
0 -2 -31 -4 -68 -4 l-68 0 -53 95 c-38 69 -58 95 -72 95 -17 0 -19 -8 -19 -95
l0 -95 -60 0 -60 0 0 275 0 275 93 0 c50 0 110 -5 131 -10z m1266 -50 l0 -60
-80 0 -80 0 0 -215 0 -215 -60 0 -60 0 0 215 0 214 -77 3 -78 3 -3 58 -3 57
221 0 220 0 0 -60z m390 0 l0 -60 -95 0 -95 0 0 -45 0 -45 70 0 70 0 0 -60 0
-60 -70 0 -70 0 0 -55 0 -55 100 0 100 0 0 -55 0 -55 -160 0 -160 0 0 275 0
275 155 0 155 0 0 -60z m1048 3 l-3 -58 -77 -3 -78 -3 0 -214 0 -215 -60 0
-60 0 0 215 0 215 -80 0 -80 0 0 60 0 60 220 0 221 0 -3 -57z m192 -218 l0
-275 -60 0 -60 0 0 275 0 275 60 0 60 0 0 -275z"/>
<path d="M2812 6591 c-142 -9 -132 22 -132 -413 0 -397 4 -431 63 -541 34 -65
106 -135 171 -166 95 -47 313 -66 438 -40 132 28 253 123 311 246 l32 68 3
395 c2 307 -1 401 -11 420 -12 25 -15 25 -145 28 -129 3 -133 2 -157 -22 l-25
-25 0 -346 c0 -381 0 -381 -63 -429 -37 -29 -108 -47 -149 -39 -41 8 -113 76
-133 125 -15 37 -18 90 -23 371 -4 282 -7 331 -21 347 -21 25 -46 28 -159 21z"/>
<path d="M3860 6572 l-25 -20 0 -536 c0 -500 1 -536 18 -553 14 -15 38 -19
125 -21 184 -5 186 -1 175 290 -5 117 -7 218 -5 225 6 18 39 26 59 15 9 -6 94
-117 188 -249 99 -137 185 -247 205 -260 30 -21 45 -23 155 -23 106 0 126 3
146 19 l24 19 3 518 c2 359 -1 527 -8 545 -17 39 -50 49 -165 49 -95 0 -106
-2 -132 -24 l-28 -24 0 -242 c0 -220 -2 -244 -17 -254 -25 -15 -40 2 -235 268
-93 126 -181 239 -196 250 -24 18 -46 21 -146 24 -105 3 -119 2 -141 -16z"/>
<path d="M3041 1738 c-78 -53 -102 -139 -61 -222 28 -58 72 -86 136 -86 91 0
154 68 154 166 0 89 -58 155 -144 162 -41 3 -57 -1 -85 -20z"/>
<path d="M5812 1743 c-46 -23 -82 -87 -82 -149 0 -98 62 -164 154 -164 67 0
107 25 136 85 70 144 -69 297 -208 228z"/>
<path d="M2040 1680 l0 -70 36 0 c61 0 94 25 94 73 0 42 -32 67 -85 67 l-45 0
0 -70z"/>
<path d="M2510 1685 l0 -65 38 0 c53 0 82 23 82 65 0 46 -22 65 -76 65 l-44 0
0 -65z"/>
</g>
</svg>
