<?xml version="1.0" standalone="no"?>
<!DOCTYPE svg PUBLIC "-//W3C//DTD SVG 20010904//EN"
 "http://www.w3.org/TR/2001/REC-SVG-20010904/DTD/svg10.dtd">
<svg version="1.0" xmlns="http://www.w3.org/2000/svg"
 width="700.000000pt" height="700.000000pt" viewBox="0 0 700.000000 700.000000"
 preserveAspectRatio="xMidYMid meet">
<metadata>
Created by potrace 1.14, written by Peter Selinger 2001-2017
</metadata>
<g transform="translate(0.000000,700.000000) scale(0.100000,-0.100000)"
fill="#000000" stroke="none">
<path d="M3279 6645 c-3 -2 -36 -7 -74 -10 -90 -7 -137 -13 -205 -25 -30 -5
-73 -12 -95 -16 -174 -27 -480 -124 -700 -222 -469 -210 -908 -561 -1221 -977
-273 -363 -460 -768 -557 -1205 -14 -63 -28 -128 -31 -145 -2 -16 -8 -50 -12
-75 -21 -132 -28 -254 -29 -470 0 -186 7 -339 20 -414 2 -11 9 -52 15 -91 68
-440 256 -906 517 -1283 166 -239 397 -489 608 -657 28 -22 52 -43 55 -46 3
-3 50 -37 105 -76 455 -322 987 -519 1540 -570 169 -16 522 -9 695 13 41 5
267 46 315 57 426 97 885 322 1240 606 107 86 140 116 275 251 342 342 602
766 751 1225 49 150 98 345 114 460 4 22 10 68 16 102 17 115 23 218 24 428 0
254 -14 414 -55 605 -5 25 -12 56 -14 70 -34 210 -182 597 -326 855 -139 250
-314 480 -524 690 -423 421 -925 703 -1496 839 -123 30 -256 53 -343 62 -34 3
-73 8 -87 11 -30 6 -516 14 -521 8z m466 -819 c22 -3 63 -8 90 -12 28 -3 66
-10 85 -14 19 -5 49 -11 65 -14 83 -15 208 -51 360 -106 110 -39 320 -149 441
-229 601 -401 978 -1032 1041 -1741 9 -107 9 -317 0 -434 -13 -159 -88 -482
-136 -591 -5 -11 -16 -38 -24 -60 -27 -71 -105 -231 -147 -302 -120 -197 -218
-322 -374 -478 -294 -293 -660 -504 -1049 -604 -61 -16 -128 -32 -147 -35 -19
-3 -62 -10 -95 -16 -142 -25 -416 -32 -592 -16 -100 9 -329 55 -444 89 -212
64 -449 177 -639 308 -539 369 -904 958 -995 1604 -12 83 -29 293 -27 330 8
155 19 286 28 330 2 11 7 40 10 65 3 25 8 48 10 51 2 4 6 24 10 45 12 77 75
278 125 398 82 202 226 441 360 601 75 88 271 278 359 346 184 143 418 273
633 353 89 33 286 88 362 101 17 3 54 10 83 15 30 5 95 13 145 16 51 4 93 8
95 9 5 5 324 -4 367 -9z"/>
<path d="M2082 4038 c-162 -25 -283 -142 -313 -303 -21 -111 -14 -438 11 -525
53 -183 268 -290 483 -239 132 31 252 159 273 291 l6 33 -102 0 -102 0 -20
-40 c-29 -56 -47 -75 -94 -96 -98 -44 -207 4 -241 106 -16 50 -23 317 -10 416
15 124 82 182 197 174 75 -6 129 -52 163 -140 2 -5 49 -10 106 -10 l103 0 -6
34 c-9 55 -61 153 -105 197 -85 84 -216 123 -349 102z"/>
<path d="M4800 4042 c-80 -10 -173 -56 -222 -108 -56 -61 -73 -111 -73 -214 0
-81 4 -102 25 -144 44 -87 128 -136 265 -156 152 -22 180 -29 205 -52 45 -43
50 -130 9 -174 -68 -72 -281 -65 -387 13 l-32 24 -66 -65 c-74 -74 -74 -74 0
-125 144 -98 398 -112 558 -30 45 23 104 82 128 129 50 100 42 243 -21 334
-46 67 -112 97 -267 121 -171 26 -209 48 -219 123 -11 82 57 142 159 143 79 1
128 -10 179 -41 l46 -28 64 64 c60 61 62 64 45 83 -25 28 -124 77 -183 91 -51
12 -166 18 -213 12z"/>
<path d="M2729 4030 c-4 -17 -3 -1060 1 -1061 3 -1 49 -2 103 -3 91 -1 97 0
98 19 0 11 1 102 1 201 l1 182 156 4 c143 3 161 6 211 29 126 60 193 169 191
310 -2 151 -111 282 -261 315 -39 8 -499 12 -501 4z m462 -192 c50 -17 82 -62
87 -121 5 -62 -13 -107 -55 -134 -34 -22 -56 -26 -183 -27 l-105 -1 -1 140
c-1 77 1 144 3 148 6 11 220 7 254 -5z"/>
<path d="M3865 4030 c-3 -5 -96 -260 -207 -565 -22 -60 -46 -126 -53 -145 -30
-77 -125 -342 -125 -348 0 -4 48 -7 107 -7 l107 0 33 95 c18 52 33 95 33 95 6
6 373 -5 379 -11 5 -5 19 -43 31 -84 12 -41 28 -79 35 -85 6 -5 57 -10 111 -9
81 0 98 3 96 15 -3 14 -77 218 -209 579 -41 113 -93 255 -114 315 -62 171 -51
159 -142 160 -43 1 -80 -1 -82 -5z m154 -508 c33 -101 61 -185 61 -188 0 -2
-58 -4 -130 -4 -71 0 -130 2 -130 4 0 4 106 313 125 365 3 8 7 12 9 10 2 -2
31 -86 65 -187z"/>
</g>
</svg>
